<svg id="w-icon-7" xmlns="http://www.w3.org/2000/svg" width="82.997" height="37.64" viewBox="0 0 82.997 37.64">
  <path id="Path_263" data-name="Path 263" d="M-70.112,72.4h-2.335A15.907,15.907,0,0,0-88.336,56.511,15.907,15.907,0,0,0-104.225,72.4h-2.335A18.245,18.245,0,0,1-88.336,54.176,18.245,18.245,0,0,1-70.112,72.4Z" transform="translate(129.946 -34.76)" fill="#3d3d3d"/>
  <path id="Path_264" data-name="Path 264" d="M-85.724,47.338a9.064,9.064,0,0,1-9.054-9.054,9.064,9.064,0,0,1,9.054-9.054,9.064,9.064,0,0,1,9.054,9.054A9.064,9.064,0,0,1-85.724,47.338Zm0-15.773a6.727,6.727,0,0,0-6.719,6.719A6.727,6.727,0,0,0-85.724,45,6.727,6.727,0,0,0-79,38.284,6.727,6.727,0,0,0-85.724,31.565Z" transform="translate(127.334 -29.23)" fill="#3d3d3d"/>
  <path id="Path_265" data-name="Path 265" d="M-134.273,72.4h-2.335a18.245,18.245,0,0,1,18.224-18.224,18.131,18.131,0,0,1,10.19,3.113l-1.308,1.935a15.8,15.8,0,0,0-8.883-2.713A15.907,15.907,0,0,0-134.273,72.4Z" transform="translate(136.608 -34.76)" fill="#3d3d3d"/>
  <path id="Path_266" data-name="Path 266" d="M-115.772,47.338a9.065,9.065,0,0,1-9.054-9.054,9.064,9.064,0,0,1,9.054-9.054,9.064,9.064,0,0,1,9.054,9.054A9.064,9.064,0,0,1-115.772,47.338Zm0-15.773a6.727,6.727,0,0,0-6.719,6.719A6.727,6.727,0,0,0-115.772,45a6.727,6.727,0,0,0,6.719-6.719A6.727,6.727,0,0,0-115.772,31.565Z" transform="translate(133.996 -29.23)" fill="#3d3d3d"/>
  <path id="Path_267" data-name="Path 267" d="M-40.4,72.4h2.335A18.245,18.245,0,0,0-56.287,54.176a18.131,18.131,0,0,0-10.19,3.113l1.308,1.935a15.8,15.8,0,0,1,8.883-2.713A15.907,15.907,0,0,1-40.4,72.4Z" transform="translate(121.06 -34.76)" fill="#3d3d3d"/>
  <path id="Path_268" data-name="Path 268" d="M-65.017,38.284a9.064,9.064,0,0,1,9.054-9.054,9.064,9.064,0,0,1,9.054,9.054,9.065,9.065,0,0,1-9.054,9.054A9.064,9.064,0,0,1-65.017,38.284Zm2.335,0A6.726,6.726,0,0,0-55.963,45a6.727,6.727,0,0,0,6.719-6.719,6.727,6.727,0,0,0-6.719-6.719A6.726,6.726,0,0,0-62.682,38.284Z" transform="translate(120.737 -29.23)" fill="#3d3d3d"/>
</svg>
