<svg xmlns="http://www.w3.org/2000/svg" width="60.571" height="42.873" viewBox="0 0 60.571 42.873">
  <path id="w-icon-5" d="M66.374,70.005c1.715.587,2.324.908,2.324,1.541,0,1.235-1.837,1.369-2.627,1.369a5.171,5.171,0,0,1-2.178-.451l-1.218,2.062a6.705,6.705,0,0,0,2.525.732v1.8H67.6V75.166c2.535-.465,3.5-2.08,3.5-3.62,0-2.458-2.28-3.238-3.945-3.807-.535-.183-2.167-.741-2.133-1.347,0-.193.4-.618,1.593-.618a5.771,5.771,0,0,1,2.323.472l.977-2.188A7.967,7.967,0,0,0,67.6,63.44V61.627H65.2v1.93a3.014,3.014,0,0,0-2.578,2.764C62.479,68.676,65.11,69.574,66.374,70.005ZM92.393,47.986H40.821v2.395H92.393ZM87,41.979h-40.8v2.395H87ZM84.77,71.5a2.084,2.084,0,1,0-2.236-2.077A2.16,2.16,0,0,0,84.77,71.5ZM66.607,80.922c5.58,0,10.12-5.158,10.12-11.5s-4.541-11.5-10.12-11.5-10.12,5.16-10.12,11.5S61.027,80.922,66.607,80.922Zm0-20.606c4.259,0,7.726,4.086,7.726,9.106s-3.466,9.1-7.726,9.1-7.726-4.084-7.726-9.1S62.346,60.316,66.607,60.316ZM36.321,53.992V84.852H96.892V53.992ZM94.5,82.457H38.716V56.387H94.5ZM48.443,71.5a2.084,2.084,0,1,0-2.234-2.077A2.16,2.16,0,0,0,48.443,71.5Z" transform="translate(-36.321 -41.979)" fill="#fec52e"/>
</svg>
