<svg id="w-icon-2" xmlns="http://www.w3.org/2000/svg" width="60.147" height="51.964" viewBox="0 0 60.147 51.964">
  <path id="Path_237" data-name="Path 237" d="M306.057,527.635a2.249,2.249,0,0,1-1.621-.691l-8.528-8.826H282.039a6.059,6.059,0,0,1-6.052-6.052V491.838a6.059,6.059,0,0,1,6.052-6.052h26.55a6.059,6.059,0,0,1,6.052,6.052v20.228a6.059,6.059,0,0,1-6.052,6.052h-.269v7.256a2.264,2.264,0,0,1-2.263,2.261Zm-24.017-39.859a4.067,4.067,0,0,0-4.062,4.062v20.228a4.067,4.067,0,0,0,4.062,4.062h14.29a1,1,0,0,1,.716.3l8.822,9.129a.269.269,0,0,0,.463-.187v-8.251a1,1,0,0,1,1-1h1.264a4.067,4.067,0,0,0,4.062-4.062V491.838a4.067,4.067,0,0,0-4.062-4.062Z" transform="translate(-254.494 -485.786)" fill="#fec52e"/>
  <path id="Path_238" data-name="Path 238" d="M14.609,654.677a2.264,2.264,0,0,1-2.263-2.261V645.16h-.269a6.059,6.059,0,0,1-6.052-6.052V618.879a6.059,6.059,0,0,1,6.052-6.052H25.983v1.99H12.076a4.067,4.067,0,0,0-4.062,4.062v20.228a4.067,4.067,0,0,0,4.062,4.062h1.264a1,1,0,0,1,1,1v8.251a.269.269,0,0,0,.463.187l8.822-9.13a1,1,0,0,1,.716-.3H36.1a4.067,4.067,0,0,0,4.062-4.062v-2.528h1.99v2.528A6.059,6.059,0,0,1,36.1,645.16H24.758l-8.528,8.826A2.25,2.25,0,0,1,14.609,654.677Z" transform="translate(-6.024 -602.713)" fill="#fec52e"/>
  <path id="Path_239" data-name="Path 239" d="M345.973,630.258h-1.99V618.879a4.067,4.067,0,0,0-4.062-4.062h-3.793v-1.99h3.793a6.059,6.059,0,0,1,6.052,6.052Z" transform="translate(-309.847 -602.713)" fill="#fec52e"/>
</svg>
