<svg id="w-icon-3" xmlns="http://www.w3.org/2000/svg" width="39.687" height="60.515" viewBox="0 0 39.687 60.515">
  <path id="Path_250" data-name="Path 250" d="M198.619,100.548a.941.941,0,0,1-.941-.941,2.791,2.791,0,0,0-5.583,0,.941.941,0,0,1-1.882,0,4.673,4.673,0,0,1,9.347,0A.941.941,0,0,1,198.619,100.548Z" transform="translate(-174.906 -94.934)" fill="#fec52e"/>
  <path id="Path_251" data-name="Path 251" d="M187.244,128.639H167.532a.941.941,0,0,1-.941-.941v-6.743a.941.941,0,0,1,.941-.941h19.712a.941.941,0,0,1,.941.941V127.7A.941.941,0,0,1,187.244,128.639Zm-18.771-1.882H186.3V121.9h-17.83Z" transform="translate(-157.408 -113.513)" fill="#fec52e"/>
  <path id="Path_252" data-name="Path 252" d="M169.91,128.377h-5.02a.941.941,0,1,0,0,1.882h4.079v48.082H133.046V130.259h4.079a.941.941,0,0,0,0-1.882H132.1a.941.941,0,0,0-.941.941v49.964a.941.941,0,0,0,.941.941h37.8a.941.941,0,0,0,.941-.941V129.318A.941.941,0,0,0,169.91,128.377Z" transform="translate(-131.164 -119.708)" fill="#fec52e"/>
  <path id="Path_253" data-name="Path 253" d="M161.186,186.447a.938.938,0,0,1-.665-.276l-2.368-2.183a.941.941,0,1,1,1.331-1.331l1.7,1.517,4.672-4.671a.941.941,0,0,1,1.331,1.331l-5.337,5.337A.938.938,0,0,1,161.186,186.447Z" transform="translate(-150.952 -157.377)" fill="#fec52e"/>
  <path id="Path_254" data-name="Path 254" d="M161.186,228.735a.938.938,0,0,1-.665-.276l-2.368-2.183a.941.941,0,1,1,1.331-1.331l1.7,1.517,4.672-4.671a.941.941,0,0,1,1.331,1.331l-5.337,5.337A.938.938,0,0,1,161.186,228.735Z" transform="translate(-150.952 -188.704)" fill="#fec52e"/>
  <path id="Path_255" data-name="Path 255" d="M161.186,271.024a.938.938,0,0,1-.665-.276l-2.368-2.183a.941.941,0,1,1,1.331-1.331l1.7,1.517,4.672-4.671a.941.941,0,0,1,1.331,1.331l-5.337,5.337A.938.938,0,0,1,161.186,271.024Z" transform="translate(-150.952 -220.031)" fill="#fec52e"/>
  <path id="Path_256" data-name="Path 256" d="M219.512,191.406H207.675a.941.941,0,1,1,0-1.882h11.836a.941.941,0,1,1,0,1.882Z" transform="translate(-187.145 -165.005)" fill="#fec52e"/>
  <path id="Path_257" data-name="Path 257" d="M219.512,233.694H207.675a.941.941,0,1,1,0-1.882h11.836a.941.941,0,0,1,0,1.882Z" transform="translate(-187.145 -196.331)" fill="#fec52e"/>
  <path id="Path_258" data-name="Path 258" d="M219.512,275.981H207.675a.941.941,0,1,1,0-1.882h11.836a.941.941,0,0,1,0,1.882Z" transform="translate(-187.145 -227.656)" fill="#fec52e"/>
</svg>
