<svg id="w-icon-4" xmlns="http://www.w3.org/2000/svg" width="52.324" height="60.842" viewBox="0 0 52.324 60.842">
  <path id="Path_243" data-name="Path 243" d="M120.092,141.184a21.092,21.092,0,1,1,21.092-21.092A21.116,21.116,0,0,1,120.092,141.184Zm0-40.561a19.469,19.469,0,1,0,19.469,19.469A19.492,19.492,0,0,0,120.092,100.622Z" transform="translate(-93.93 -85.412)" fill="#3d3d3d"/>
  <path id="Path_244" data-name="Path 244" d="M118.912,145.074a26.162,26.162,0,1,1,26.162-26.162A26.192,26.192,0,0,1,118.912,145.074Zm0-50.7a24.54,24.54,0,1,0,24.54,24.54A24.567,24.567,0,0,0,118.912,94.372Z" transform="translate(-92.75 -84.232)" fill="#3d3d3d"/>
  <path id="Path_245" data-name="Path 245" d="M128.7,88.943h-10.14a.812.812,0,0,1-.811-.811v-5.07a.812.812,0,0,1,.811-.811H128.7a.811.811,0,0,1,.811.811v5.07A.811.811,0,0,1,128.7,88.943Zm-9.329-1.622h8.518V83.872h-8.518Z" transform="translate(-97.469 -82.25)" fill="#3d3d3d"/>
  <path id="Path_246" data-name="Path 246" d="M125.783,93.6h-.039c-.814-.041-1.643-.041-2.456,0a.824.824,0,0,1-.6-.223.813.813,0,0,1-.251-.587v-3.48a.811.811,0,0,1,.811-.811h2.534a.811.811,0,0,1,.811.811v3.48a.811.811,0,0,1-.811.811Zm-1.267-1.655c.153,0,.3,0,.456,0V90.122h-.912v1.829C124.212,91.949,124.364,91.948,124.516,91.948Z" transform="translate(-98.354 -83.43)" fill="#3d3d3d"/>
  <path id="Path_247" data-name="Path 247" d="M147.568,103.4h-.021a.809.809,0,0,1-.58-.266q-.41-.454-.846-.89h0q-.436-.436-.889-.844a.811.811,0,0,1-.029-1.175l3.607-3.608a.835.835,0,0,1,1.147,0l1.793,1.793a.81.81,0,0,1,0,1.147l-3.608,3.608A.812.812,0,0,1,147.568,103.4Zm-.3-2.3c.108.108.214.216.32.325l2.441-2.441-.646-.646-2.441,2.441C147.051,100.886,147.16,100.992,147.268,101.1Z" transform="translate(-102.607 -84.919)" fill="#3d3d3d"/>
  <path id="Path_248" data-name="Path 248" d="M124.219,123.73a.812.812,0,0,1-.574-1.386l10.678-10.679a.811.811,0,1,1,1.147,1.147l-10.678,10.68A.81.81,0,0,1,124.219,123.73Z" transform="translate(-98.537 -87.758)" fill="#3d3d3d"/>
  <path id="Path_249" data-name="Path 249" d="M122.538,124.782a.809.809,0,0,1-.574-.238l-6.16-6.16a.811.811,0,0,1,1.147-1.147l6.16,6.16a.812.812,0,0,1-.574,1.386Z" transform="translate(-97.057 -88.81)" fill="#3d3d3d"/>
</svg>
