<svg id="w-icon-6" xmlns="http://www.w3.org/2000/svg" width="67.556" height="64.387" viewBox="0 0 67.556 64.387">
  <path id="Path_260" data-name="Path 260" d="M322.764,191.979a.771.771,0,0,1-1.046-.306l-11.906-21.729a.772.772,0,0,1,.306-1.047l6.187-3.39-1.249-2.28-6.187,3.39a3.375,3.375,0,0,0-1.336,4.576l11.906,21.73a3.373,3.373,0,0,0,4.575,1.336l6.2-3.4-1.249-2.28Z" transform="translate(-307.117 -130.286)" fill="#3d3d3d"/>
  <path id="Path_261" data-name="Path 261" d="M387.588,106.107,370.5,88.252a3.347,3.347,0,0,0-2.384-1.04h-.053a3.345,3.345,0,0,0-2.361.967l-27.151,26.684-7.007,3.839,1.249,2.28,35.629-19.522a.772.772,0,0,1,1.047.306l11.906,21.73a.772.772,0,0,1-.306,1.046l-35.663,19.54,1.249,2.28,35.663-19.54a3.375,3.375,0,0,0,1.336-4.576l-2.705-4.938,6.565-6.47A3.386,3.386,0,0,0,387.588,106.107Zm-1.895,2.879-6.039,5.951-7.9-14.422a3.374,3.374,0,0,0-4.575-1.336l-20.239,11.089,20.591-20.236a.749.749,0,0,1,.552-.221.767.767,0,0,1,.545.238l17.084,17.855A.774.774,0,0,1,385.693,108.987Z" transform="translate(-320.961 -87.212)" fill="#3d3d3d"/>
  <rect id="Rectangle_162" data-name="Rectangle 162" width="2.6" height="4.327" transform="translate(9.558 35.32) rotate(-28.721)" fill="#3d3d3d"/>
  <rect id="Rectangle_163" data-name="Rectangle 163" width="2.6" height="4.757" transform="translate(12.857 41.343) rotate(-28.721)" fill="#3d3d3d"/>
  <rect id="Rectangle_164" data-name="Rectangle 164" width="2.6" height="4.758" transform="translate(16.364 47.743) rotate(-28.72)" fill="#3d3d3d"/>
  <rect id="Rectangle_165" data-name="Rectangle 165" width="2.6" height="4.326" transform="translate(19.871 54.143) rotate(-28.717)" fill="#3d3d3d"/>
  <path id="Path_262" data-name="Path 262" d="M379.434,144.743l-.209-.293a.428.428,0,0,0-.507-.149l-.334.135a2.643,2.643,0,0,0-1.573,1.795l-1.49,4.868-9.663,3.694-.572,1.958,9-1.077-1.252,6.275-2.373,1.616-.276.946,3.029-.426,2.323,1.989.276-.946-1.194-2.558,2.361-6.089,7.033,5.8.572-1.958-6.17-8.333,1.378-4.886A2.643,2.643,0,0,0,379.434,144.743Z" transform="translate(-339.964 -119.544)" fill="#3d3d3d"/>
</svg>
